<?xml version="1.0" encoding="utf-8"?>
<!-- Generator: Adobe Illustrator 25.2.0, SVG Export Plug-In . SVG Version: 6.00 Build 0)  -->
<svg version="1.1" id="Layer_1" xmlns="http://www.w3.org/2000/svg" xmlns:xlink="http://www.w3.org/1999/xlink" x="0px" y="0px"
	 viewBox="0 0 16 16" style="enable-background:new 0 0 16 16;" xml:space="preserve">
<style type="text/css">
	.st0{display:none;}
	.st1{display:inline;}
	.st2{fill:#191E28;}
	.st3{fill:#2061F2;}
</style>
<g id="StoryHumor" class="st0">
	<g class="st1">
		<g>
			<path class="st2" d="M134.3-4.1c0,4.3-1.5,7.9-4.5,10.9c-2.9,2.9-6.5,4.4-10.9,4.4s-8-1.5-10.9-4.4c-3-3-4.4-6.6-4.4-10.9h8.5
				c0,2.1,0.7,3.8,2,5.1s2.9,2,4.9,2s3.6-0.7,4.9-2s2-3,2-5.1H134.3z"/>
			<path class="st2" d="M157.9,11.2c0-4.3,1.5-7.9,4.5-10.9c2.9-2.9,6.5-4.4,10.9-4.4s8,1.5,10.9,4.4c3,3,4.4,6.6,4.4,10.9h-8.5
				c0-2.1-0.7-3.8-2-5.1s-2.9-2-4.9-2s-3.6,0.7-4.9,2s-2,3-2,5.1H157.9z"/>
			<path class="st2" d="M-188.6-58.6c-11.2,0-20.7-2.4-28.4-7.3c-7.7-4.9-13.2-11.7-16.5-20.4l22.1-12.8
				c4.5,10.3,12.3,15.5,23.6,15.5c10.1,0,15.2-3,15.2-9.1c0-3.4-1.7-6-5-7.7c-3.4-2-9.5-4.2-18.3-6.6c-9-2.5-16.6-6-22.8-10.6
				c-6.8-5.6-10.3-13.4-10.3-23.6c0-10.4,3.7-18.6,11.1-24.9c7.5-6.2,16.4-9.3,26.6-9.3c9.2,0,17.3,2.2,24.4,6.5
				c7.1,4.3,12.7,10.7,16.7,18.9l-21.6,12.7c-4.1-8.7-10.5-13-19.4-13c-3.7,0-6.7,0.8-8.8,2.4c-2.1,1.6-3.2,3.6-3.2,6.1
				c0,2.7,1.3,5.1,3.9,7.2c2.8,2.1,8.2,4.4,16.4,6.7l10.4,3.4c2.7,0.9,5.8,2.3,9.3,4.3c3.9,1.9,6.7,4,8.7,6.2
				c5.1,5.6,7.7,12.5,7.7,20.8c0,10.6-3.9,19-11.5,25.3C-166.2-61.6-176.2-58.6-188.6-58.6z"/>
			<path class="st2" d="M-90.4-141v23.1h-16.5v28.4c0,3.1,1.2,5.1,3.7,6s6.7,1.2,12.8,0.9v21.8c-15.2,1.6-25.8,0.2-31.7-4.3
				c-5.9-4.6-8.8-12.7-8.8-24.4v-28.4h-12.9V-141h12.8v-15.2l24-7.2v22.5L-90.4-141L-90.4-141z"/>
			<path class="st2" d="M-9.8-70.8c-8.1,8.1-18.2,12.2-30.1,12.2s-22-4.1-30.1-12.2c-8.2-8.2-12.3-18.3-12.3-30.1s4.1-21.7,12.3-30
				c8.2-8.3,18.3-12.3,30.1-12.3c11.9,0,21.9,4.1,30.1,12.3c8.2,8.2,12.3,18.2,12.3,30C2.6-89-1.6-79-9.8-70.8z M-58.3-100.9
				c0,5.6,1.8,10.1,5.3,13.6s7.9,5.3,13.1,5.3s9.6-1.8,13.1-5.3s5.3-8.1,5.3-13.6s-1.8-10.1-5.3-13.6s-7.9-5.3-13.1-5.3
				s-9.6,1.8-13.1,5.3S-58.3-106.5-58.3-100.9z"/>
			<path class="st2" d="M40.2-141v14.3c1.5-5,4.5-8.9,8.9-11.7s9.5-4.2,15.2-4.2v27.3c-6-1-11.5,0-16.5,3c-5,2.9-7.5,8-7.5,15.2
				v36.2h-24V-141H40.2L40.2-141z"/>
			<path class="st2" d="M119.2-93.7l15.1-49.1H160L132.6-65c-4.5,12.5-10.4,21.5-17.7,27c-7.3,5.5-16.7,8-28,7.5V-53
				c5.6,0,9.8-1,12.8-3s5.4-5.4,7.2-10.3L75-142.8h26.5L119.2-93.7z"/>
			<path class="st3" d="M-167.1,6.9v-43h25.7V76.1h-25.6V31.5h-35.3v44.6h-25.6V-36.1h25.6v43H-167.1L-167.1,6.9z"/>
			<path class="st3" d="M-71.1,39.7V-4.1h24v80.2h-24v-7.5c-4.8,6.5-12.5,9.8-22.9,9.8c-8.5,0-15.7-2.9-21.5-8.8
				c-5.7-6-8.5-14.1-8.5-24.4V-4h24v45.7c0,4.6,1.3,8.2,3.9,10.7c2.6,2.6,5.9,3.8,10.1,3.8c4.7,0,8.4-1.4,11-4.2
				S-71.1,45.1-71.1,39.7z"/>
			<path class="st3" d="M85.2,6.3c-0.8-1.2-1.8-2.4-2.8-3.5c-5.7-6.1-13-9.1-22.1-9.1c-10.6,0-18.3,3.5-23.2,10.6
				c-4.7-7-11.7-10.6-21-10.6C6.2-6.3-1.1-3.1-5.4,3.3v-7.4h-24v80.2h24V30.9c0-4.7,1.1-8.4,3.3-11.1c2.2-2.7,5.3-4,9.2-4
				c3.7,0,6.6,1.1,8.6,3.4s3,5.5,3,9.7V76h24V30.8c0-4.7,1.1-8.4,3.3-11.1c2.2-2.7,5.3-4,9.2-4c3.7,0,6.6,1.1,8.6,3.4
				c2,2.3,3,5.5,3,9.7v29.3c0.1,6.1,0.8,12.1,2.2,17.8h21.8V26.7C90.8,18.6,88.9,11.8,85.2,6.3z"/>
			<path class="st2" d="M176.3,87.4c-8.1,8.1-18.2,12.2-30.1,12.2c-12,0-22-4.1-30.1-12.2c-8.2-8.2-12.3-18.3-12.3-30.1
				s4.1-21.8,12.3-30c8.2-8.2,18.3-12.3,30.1-12.3s21.9,4.1,30.1,12.3s12.3,18.2,12.3,30S184.4,79.2,176.3,87.4z M127.7,57.3
				c0,5.6,1.8,10.1,5.3,13.6s7.9,5.3,13.2,5.3c5.2,0,9.6-1.8,13.2-5.3c3.5-3.5,5.3-8.1,5.3-13.6s-1.8-10.1-5.3-13.6
				s-7.9-5.3-13.2-5.3c-5.2,0-9.6,1.8-13.2,5.3C129.4,47.2,127.7,51.7,127.7,57.3z"/>
			<path class="st3" d="M234.4-1.5c-4.4,2.8-7.4,6.7-8.9,11.7V-4.1h-24v80.2h21.8c1.5-6,2.3-12.3,2.3-18.8V39.9
				c0-7.3,2.5-12.3,7.5-15.2c5-3,10.5-4,16.5-3V-5.6C243.9-5.7,238.8-4.3,234.4-1.5z"/>
			<path class="st3" d="M201.4,57.3c0,30.6-24.8,55.4-55.4,55.4c-30.3,0-55-24.4-55.3-54.6c0-0.2,0-0.5,0-0.7h-24c0,0.3,0,0.7,0,1
				c0.1,6.1,0.8,12.1,2.2,17.8c8.5,34.8,39.8,60.5,77.2,60.5s68.7-25.8,77.2-60.5c1.5-6,2.3-12.3,2.3-18.8L201.4,57.3L201.4,57.3z"
				/>
		</g>
	</g>
</g>
<g id="StoryHumor_Studio" class="st0">
	<g class="st1">
		<g>
			<path class="st2" d="M78.8-4.1c0,4.3-1.5,7.9-4.5,10.9c-2.9,2.9-6.5,4.4-10.9,4.4s-8-1.5-10.9-4.4c-3-3-4.4-6.6-4.4-10.9h8.5
				c0,2.1,0.7,3.8,2,5.1s2.9,2,4.9,2s3.6-0.7,4.9-2c1.3-1.3,2-3,2-5.1H78.8z"/>
			<path class="st2" d="M102.4,11.2c0-4.3,1.5-7.9,4.5-10.9c2.9-2.9,6.6-4.4,10.9-4.4s8,1.5,10.9,4.4c3,3,4.4,6.6,4.4,10.9h-8.6
				c0-2.1-0.7-3.8-2-5.1s-2.9-2-4.9-2s-3.6,0.7-4.9,2s-2,3-2,5.1H102.4z"/>
			<path class="st2" d="M-244.2-58.6c-11.2,0-20.7-2.4-28.4-7.3c-7.7-4.9-13.2-11.7-16.5-20.4l22.1-12.8
				c4.6,10.3,12.4,15.5,23.6,15.5c10.1,0,15.2-3,15.2-9.1c0-3.4-1.7-6-5-7.7c-3.4-2-9.5-4.2-18.3-6.6c-9-2.5-16.6-6-22.8-10.6
				c-6.8-5.6-10.3-13.4-10.3-23.6c0-10.4,3.7-18.6,11.1-24.9c7.5-6.2,16.4-9.3,26.6-9.3c9.2,0,17.3,2.2,24.4,6.5
				c7.1,4.3,12.6,10.6,16.7,18.8l-21.6,12.7c-4.1-8.7-10.5-13-19.4-13c-3.7,0-6.7,0.8-8.8,2.4s-3.2,3.6-3.2,6.1
				c0,2.7,1.3,5.1,3.9,7.2c2.8,2.1,8.2,4.4,16.4,6.7l10.4,3.4c2.7,0.9,5.8,2.3,9.3,4.3c3.9,1.9,6.7,4,8.7,6.2
				c5.1,5.6,7.7,12.5,7.7,20.8c0,10.6-3.9,19-11.5,25.3C-221.8-61.6-231.9-58.6-244.2-58.6z"/>
			<path class="st2" d="M-145.9-141v23.1h-16.5v28.4c0,3.1,1.2,5.1,3.7,6s6.7,1.2,12.8,0.9v21.8c-15.2,1.6-25.8,0.2-31.7-4.3
				c-5.9-4.6-8.8-12.7-8.8-24.4v-28.4h-12.8V-141h12.8v-15.2l24-7.2v22.5L-145.9-141L-145.9-141z"/>
			<path class="st2" d="M-65.2-70.8c-8.2,8.2-18.2,12.2-30.2,12.2s-22-4.1-30.1-12.2c-8.2-8.2-12.3-18.3-12.3-30.1s4.1-21.7,12.3-30
				c8.2-8.3,18.3-12.3,30.1-12.3s21.9,4.1,30.1,12.3s12.3,18.2,12.3,30C-52.9-89-57-79-65.2-70.8z M-113.8-100.9
				c0,5.6,1.8,10.1,5.3,13.6s7.9,5.3,13.1,5.3s9.6-1.8,13.1-5.3s5.3-8.1,5.3-13.6s-1.8-10.1-5.3-13.6s-7.9-5.3-13.1-5.3
				s-9.6,1.8-13.1,5.3C-112.1-111-113.8-106.5-113.8-100.9z"/>
			<path class="st2" d="M-15.2-141v14.3c1.5-5,4.5-8.9,8.9-11.7s9.5-4.2,15.2-4.2v27.3c-6-1-11.5,0-16.5,3c-5,2.9-7.5,8-7.5,15.2
				v36.2h-24V-141H-15.2L-15.2-141z"/>
			<path class="st2" d="M63.7-93.7l15.1-49.1h25.7L77.1-65c-4.5,12.5-10.4,21.5-17.7,27s-16.7,8-28,7.5V-53c5.6,0,9.8-1,12.8-3
				s5.4-5.4,7.2-10.3l-31.9-76.5H46L63.7-93.7z"/>
			<path class="st3" d="M-222.5,6.9v-43h25.6V76.1h-25.6V31.5h-35.3v44.6h-25.6V-36.1h25.6v43H-222.5L-222.5,6.9z"/>
			<path class="st3" d="M-126.8,39.7V-4.1h24v80.2h-24v-7.5c-4.8,6.5-12.5,9.8-22.9,9.8c-8.5,0-15.7-2.9-21.5-8.8
				c-5.7-6-8.5-14.1-8.5-24.4V-4h24v45.7c0,4.6,1.3,8.2,3.9,10.7c2.6,2.6,5.9,3.8,10.1,3.8c4.7,0,8.4-1.4,11-4.2
				C-128.1,49.2-126.8,45.1-126.8,39.7z"/>
			<path class="st3" d="M29.7,6.3c-0.8-1.2-1.8-2.4-2.8-3.5c-5.7-6.1-13-9.1-22.1-9.1c-10.6,0-18.3,3.5-23.2,10.6
				c-4.7-7-11.7-10.6-21-10.6c-9.9,0-17.1,3.2-21.5,9.6v-7.4H-85v80.2h24.1V30.9c0-4.7,1.1-8.4,3.3-11.1c2.2-2.7,5.3-4,9.2-4
				c3.7,0,6.6,1.1,8.6,3.4s3,5.5,3,9.7V76h24.1V30.8c0-4.7,1.1-8.4,3.3-11.1c2.2-2.7,5.3-4,9.2-4c3.7,0,6.6,1.1,8.6,3.4
				c2,2.3,3,5.5,3,9.7v29.3c0.1,6.1,0.8,12.1,2.2,17.8h21.8V26.7C35.2,18.6,33.4,11.8,29.7,6.3z"/>
			<path class="st2" d="M120.8,87.4c-8.1,8.1-18.2,12.2-30.1,12.2c-12,0-22-4.1-30.1-12.2c-8.2-8.2-12.3-18.3-12.3-30.1
				s4.1-21.8,12.3-30S78.9,15,90.7,15s21.9,4.1,30.1,12.3s12.3,18.2,12.3,30S128.9,79.2,120.8,87.4z M72.2,57.3
				c0,5.6,1.8,10.1,5.3,13.6s7.9,5.3,13.2,5.3c5.2,0,9.6-1.8,13.2-5.3c3.5-3.5,5.3-8.1,5.3-13.6s-1.8-10.1-5.3-13.6
				s-7.9-5.3-13.2-5.3c-5.2,0-9.6,1.8-13.2,5.3S72.2,51.7,72.2,57.3z"/>
			<path class="st3" d="M178.8-1.5c-4.4,2.8-7.4,6.7-8.9,11.7V-4.1h-24v80.2h21.8c1.5-6,2.3-12.3,2.3-18.8V39.9
				c0-7.3,2.5-12.3,7.5-15.2c5-3,10.5-4,16.5-3V-5.6C188.3-5.7,183.3-4.3,178.8-1.5z"/>
			<path class="st3" d="M145.9,57.3c0,30.6-24.8,55.4-55.4,55.4c-30.3,0-55-24.4-55.3-54.6c0-0.2,0-0.5,0-0.7h-24c0,0.3,0,0.7,0,1
				c0.1,6.1,0.8,12.1,2.2,17.8c8.5,34.8,39.8,60.5,77.2,60.5s68.7-25.8,77.2-60.5c1.5-6,2.3-12.3,2.3-18.8L145.9,57.3L145.9,57.3z"
				/>
		</g>
		<g>
			<text transform="matrix(1 0 0 1 192.4449 75.2156)" style="font-family:'Gilroy-Extrabold'; font-size:61.6591px;">Studio</text>
		</g>
	</g>
</g>
<g id="Layer_5" class="st0">
	<g class="st1">
		<g>
			<path class="st2" d="M134.3-4.1c0,4.3-1.5,7.9-4.5,10.9c-2.9,2.9-6.5,4.4-10.9,4.4s-8-1.5-10.9-4.4c-3-3-4.4-6.6-4.4-10.9h8.5
				c0,2.1,0.7,3.8,2,5.1s2.9,2,4.9,2s3.6-0.7,4.9-2s2-3,2-5.1H134.3z"/>
			<path class="st2" d="M157.9,11.2c0-4.3,1.5-7.9,4.5-10.9c2.9-2.9,6.5-4.4,10.9-4.4s8,1.5,10.9,4.4c3,3,4.4,6.6,4.4,10.9h-8.5
				c0-2.1-0.7-3.8-2-5.1s-2.9-2-4.9-2s-3.6,0.7-4.9,2s-2,3-2,5.1H157.9z"/>
			<path class="st2" d="M-188.6-58.6c-11.2,0-20.7-2.4-28.4-7.3c-7.7-4.9-13.2-11.7-16.5-20.4l22.1-12.8
				c4.5,10.3,12.3,15.5,23.6,15.5c10.1,0,15.2-3,15.2-9.1c0-3.4-1.7-6-5-7.7c-3.4-2-9.5-4.2-18.3-6.6c-9-2.5-16.6-6-22.8-10.6
				c-6.8-5.6-10.3-13.4-10.3-23.6c0-10.4,3.7-18.6,11.1-24.9c7.5-6.2,16.4-9.3,26.6-9.3c9.2,0,17.3,2.2,24.4,6.5
				c7.1,4.3,12.7,10.7,16.7,18.9l-21.6,12.7c-4.1-8.7-10.5-13-19.4-13c-3.7,0-6.7,0.8-8.8,2.4c-2.1,1.6-3.2,3.6-3.2,6.1
				c0,2.7,1.3,5.1,3.9,7.2c2.8,2.1,8.2,4.4,16.4,6.7l10.4,3.4c2.7,0.9,5.8,2.3,9.3,4.3c3.9,1.9,6.7,4,8.7,6.2
				c5.1,5.6,7.7,12.5,7.7,20.8c0,10.6-3.9,19-11.5,25.3C-166.2-61.6-176.2-58.6-188.6-58.6z"/>
			<path class="st2" d="M-90.4-141v23.1h-16.5v28.4c0,3.1,1.2,5.1,3.7,6s6.7,1.2,12.8,0.9v21.8c-15.2,1.6-25.8,0.2-31.7-4.3
				c-5.9-4.6-8.8-12.7-8.8-24.4v-28.4h-12.9V-141h12.8v-15.2l24-7.2v22.5L-90.4-141L-90.4-141z"/>
			<path class="st2" d="M-9.8-70.8c-8.1,8.1-18.2,12.2-30.1,12.2s-22-4.1-30.1-12.2c-8.2-8.2-12.3-18.3-12.3-30.1s4.1-21.7,12.3-30
				c8.2-8.3,18.3-12.3,30.1-12.3s21.9,4.1,30.1,12.3c8.2,8.2,12.3,18.2,12.3,30C2.6-89-1.6-79-9.8-70.8z M-58.3-100.9
				c0,5.6,1.8,10.1,5.3,13.6s7.9,5.3,13.1,5.3s9.6-1.8,13.1-5.3s5.3-8.1,5.3-13.6s-1.8-10.1-5.3-13.6s-7.9-5.3-13.1-5.3
				s-9.6,1.8-13.1,5.3S-58.3-106.5-58.3-100.9z"/>
			<path class="st2" d="M40.2-141v14.3c1.5-5,4.5-8.9,8.9-11.7s9.5-4.2,15.2-4.2v27.3c-6-1-11.5,0-16.5,3c-5,2.9-7.5,8-7.5,15.2
				v36.2h-24V-141H40.2L40.2-141z"/>
			<path class="st2" d="M119.2-93.7l15.1-49.1H160L132.6-65c-4.5,12.5-10.4,21.5-17.7,27c-7.3,5.5-16.7,8-28,7.5V-53
				c5.6,0,9.8-1,12.8-3s5.4-5.4,7.2-10.3L75-142.8h26.5L119.2-93.7z"/>
			<path class="st3" d="M-167.1,6.9v-43h25.7V76.1h-25.6V31.5h-35.3v44.6h-25.6V-36.1h25.6v43H-167.1L-167.1,6.9z"/>
			<path class="st3" d="M-71.1,39.7V-4.1h24v80.2h-24v-7.5c-4.8,6.5-12.5,9.8-22.9,9.8c-8.5,0-15.7-2.9-21.5-8.8
				c-5.7-6-8.5-14.1-8.5-24.4V-4h24v45.7c0,4.6,1.3,8.2,3.9,10.7c2.6,2.6,5.9,3.8,10.1,3.8c4.7,0,8.4-1.4,11-4.2
				S-71.1,45.1-71.1,39.7z"/>
			<path class="st3" d="M85.2,6.3c-0.8-1.2-1.8-2.4-2.8-3.5c-5.7-6.1-13-9.1-22.1-9.1c-10.6,0-18.3,3.5-23.2,10.6
				c-4.7-7-11.7-10.6-21-10.6C6.2-6.3-1.1-3.1-5.4,3.3v-7.4h-24v80.2h24V30.9c0-4.7,1.1-8.4,3.3-11.1c2.2-2.7,5.3-4,9.2-4
				c3.7,0,6.6,1.1,8.6,3.4s3,5.5,3,9.7V76h24V30.8c0-4.7,1.1-8.4,3.3-11.1c2.2-2.7,5.3-4,9.2-4c3.7,0,6.6,1.1,8.6,3.4
				c2,2.3,3,5.5,3,9.7v29.3c0.1,6.1,0.8,12.1,2.2,17.8h21.8V26.7C90.8,18.6,88.9,11.8,85.2,6.3z"/>
			<path class="st2" d="M176.3,87.4c-8.1,8.1-18.2,12.2-30.1,12.2c-12,0-22-4.1-30.1-12.2c-8.2-8.2-12.3-18.3-12.3-30.1
				s4.1-21.8,12.3-30c8.2-8.2,18.3-12.3,30.1-12.3s21.9,4.1,30.1,12.3s12.3,18.2,12.3,30S184.4,79.2,176.3,87.4z M127.7,57.3
				c0,5.6,1.8,10.1,5.3,13.6s7.9,5.3,13.2,5.3c5.2,0,9.6-1.8,13.2-5.3c3.5-3.5,5.3-8.1,5.3-13.6s-1.8-10.1-5.3-13.6
				s-7.9-5.3-13.2-5.3c-5.2,0-9.6,1.8-13.2,5.3C129.4,47.2,127.7,51.7,127.7,57.3z"/>
			<path class="st3" d="M234.4-1.5c-4.4,2.8-7.4,6.7-8.9,11.7V-4.1h-24v80.2h21.8c1.5-6,2.3-12.3,2.3-18.8V39.9
				c0-7.3,2.5-12.3,7.5-15.2c5-3,10.5-4,16.5-3V-5.6C243.9-5.7,238.8-4.3,234.4-1.5z"/>
			<path class="st3" d="M201.4,57.3c0,30.6-24.8,55.4-55.4,55.4c-30.3,0-55-24.4-55.3-54.6c0-0.2,0-0.5,0-0.7h-24c0,0.3,0,0.7,0,1
				c0.1,6.1,0.8,12.1,2.2,17.8c8.5,34.8,39.8,60.5,77.2,60.5s68.7-25.8,77.2-60.5c1.5-6,2.3-12.3,2.3-18.8L201.4,57.3L201.4,57.3z"
				/>
		</g>
		<g>
			<path class="st2" d="M173.8-124.7c0-1.6,0.2-3.2,0.6-4.7s1-2.9,1.8-4.2s1.7-2.5,2.8-3.5c1.1-1.1,2.2-2,3.5-2.8s2.7-1.4,4.2-1.8
				c1.5-0.4,3-0.6,4.7-0.6s3.2,0.2,4.7,0.6c1.5,0.4,2.9,1,4.2,1.8c1.3,0.8,2.5,1.7,3.5,2.8c1.1,1.1,2,2.2,2.7,3.5
				c0.8,1.3,1.4,2.7,1.8,4.2s0.6,3,0.6,4.7c0,1.6-0.2,3.1-0.6,4.6s-1,2.9-1.8,4.2c-0.8,1.3-1.7,2.5-2.7,3.5c-1.1,1.1-2.2,2-3.5,2.7
				c-1.3,0.8-2.7,1.4-4.2,1.8s-3,0.6-4.7,0.6s-3.2-0.2-4.7-0.6s-2.9-1-4.2-1.8c-1.3-0.8-2.5-1.7-3.5-2.7s-2-2.2-2.8-3.5
				s-1.4-2.7-1.8-4.2C173.9-121.6,173.8-123.1,173.8-124.7z M176.3-124.7c0,1.4,0.2,2.8,0.5,4.1s0.8,2.5,1.5,3.7
				c0.7,1.1,1.4,2.2,2.3,3.1s1.9,1.7,3,2.4c1.1,0.7,2.3,1.2,3.6,1.5s2.7,0.5,4,0.5s2.8-0.2,4-0.5c1.3-0.4,2.5-0.9,3.6-1.5
				c1.1-0.7,2.2-1.5,3.1-2.4s1.7-2,2.4-3.1c0.7-1.1,1.2-2.4,1.5-3.7c0.4-1.3,0.5-2.7,0.5-4.1c0-2.1-0.4-4.1-1.2-6
				c-0.8-1.9-1.9-3.5-3.2-4.9c-1.4-1.4-3-2.5-4.8-3.3s-3.8-1.2-5.9-1.2s-4.1,0.4-5.9,1.2s-3.4,1.9-4.8,3.3s-2.4,3-3.2,4.9
				C176.4-128.8,176.3-126.9,176.3-124.7z M187.8-122.6v8.5h-3.7v-21.4h6.9c2.8,0,4.8,0.5,6.1,1.5c1.3,1,2,2.5,2,4.4
				c0,1.5-0.4,2.8-1.3,3.8c-0.8,1-2.1,1.8-3.8,2.2c0.3,0.2,0.5,0.4,0.7,0.6c0.2,0.2,0.4,0.5,0.6,0.8l5.4,8h-3.5
				c-0.5,0-0.9-0.2-1.2-0.6l-4.8-7.2c-0.1-0.2-0.3-0.4-0.5-0.5c-0.2-0.1-0.5-0.2-0.9-0.2L187.8-122.6L187.8-122.6z M187.8-125.3h2.8
				c0.9,0,1.7-0.1,2.3-0.2c0.6-0.2,1.1-0.4,1.5-0.7c0.4-0.3,0.7-0.7,0.8-1.2c0.2-0.5,0.2-1,0.2-1.6c0-0.6-0.1-1.1-0.2-1.6
				c-0.2-0.5-0.4-0.8-0.7-1.1c-0.3-0.3-0.8-0.5-1.3-0.6c-0.6-0.1-1.3-0.2-2.1-0.2h-3.2L187.8-125.3L187.8-125.3z"/>
		</g>
	</g>
</g>
<g id="Layer_4">
	<g>
		<path class="st2" d="M6.2,0c0,0.7-0.2,1.2-0.7,1.7C5,2.1,4.5,2.4,3.8,2.4S2.6,2.1,2.1,1.7C1.7,1.2,1.4,0.7,1.4,0h1.3
			c0,0.3,0.1,0.6,0.3,0.8C3.3,1,3.5,1.1,3.8,1.1S4.4,1,4.6,0.8C4.8,0.6,4.9,0.3,4.9,0H6.2L6.2,0z"/>
		<path class="st2" d="M9.8,2.4c0-0.7,0.2-1.2,0.7-1.7C11,0.2,11.5,0,12.2,0c0.7,0,1.2,0.2,1.7,0.7c0.5,0.5,0.7,1,0.7,1.7h-1.3
			c0-0.3-0.1-0.6-0.3-0.8s-0.5-0.3-0.8-0.3c-0.3,0-0.6,0.1-0.8,0.3c-0.2,0.2-0.3,0.5-0.3,0.8H9.8z"/>
		<path class="st3" d="M12.7,14.1C11.4,15.4,9.8,16,8,16s-3.4-0.6-4.7-1.9c-1.3-1.3-1.9-2.8-1.9-4.7c0-1.8,0.6-3.4,1.9-4.6
			S6.2,2.9,8,2.9s3.4,0.6,4.7,1.9c1.3,1.3,1.9,2.8,1.9,4.6C14.6,11.3,13.9,12.8,12.7,14.1z M5.2,9.5c0,0.9,0.3,1.6,0.8,2.1
			s1.2,0.8,2,0.8c0.8,0,1.5-0.3,2-0.8s0.8-1.2,0.8-2.1c0-0.9-0.3-1.6-0.8-2.1C9.5,6.8,8.8,6.5,8,6.5c-0.8,0-1.5,0.3-2,0.8
			S5.2,8.6,5.2,9.5z"/>
	</g>
</g>
</svg>
